<svg xmlns="http://www.w3.org/2000/svg" viewBox="0 0 1121.91 1497.63"><defs><style>.cls-1,.cls-2{fill:#406429;}.cls-2{fill-rule:evenodd;}</style></defs><title>Asset 57</title><g id="Layer_2" data-name="Layer 2"><g id="Layer_1-2" data-name="Layer 1"><path class="cls-1" d="M200.27,1489.64a120.32,120.32,0,0,1-40.66,7.26c-20,0-36.58-5.07-49.44-17.48-11.4-11-18.42-28.51-18.39-49.09.06-39.44,27.18-68.31,71.49-68.31,15.28,0,27.39,3.36,33.07,6.07L192.07,1382c-7-3.21-15.86-5.66-29.21-5.66-32.07,0-53.11,20-53.11,53.08,0,33.5,20.11,53.35,51,53.35,11.17,0,18.75-1.58,22.69-3.57v-39.38H156.73v-13.67h43.54Z" transform="translate(-91.78)"/><path class="cls-1" d="M220.53,1365.16a180.85,180.85,0,0,1,32.84-2.84c18.13,0,30.08,3.45,38.32,10.88,6.53,5.79,10.37,14.79,10.37,25.14,0,17.37-11.09,28.92-24.92,33.69v.48c10.08,3.54,16.18,13.07,19.39,26.77,4.35,18.48,7.48,31.13,10.17,36.29H289c-2.08-3.82-5.06-15.09-8.68-31.65-3.93-18.11-11.08-25.13-26.54-25.65H237.59v57.3H220.53Zm17.06,60.19H255c18.28,0,29.86-9.95,29.86-25.11,0-17.17-12.39-24.63-30.4-24.66-8.28,0-14,.76-16.91,1.51Z" transform="translate(-91.78)"/><path class="cls-1" d="M388.82,1433.59H337.56v47.76h57.33v14.22h-74.5V1363.35h71.48v14.22H337.56v41.88h51.26Z" transform="translate(-91.78)"/><path class="cls-1" d="M479.65,1433.59H428.39v47.76h57.33v14.22h-74.5V1363.35H482.7v14.22H428.39v41.88h51.26Z" transform="translate(-91.78)"/><path class="cls-1" d="M502.06,1495.57V1363.35h18.77l42.36,66.83a383.43,383.43,0,0,1,23.59,43l.44-.2c-1.55-17.65-1.86-33.78-1.86-54.26v-55.42h16.08v132.22H584.09l-42-67c-9.1-14.81-18-29.89-24.6-44.27l-.58.2c1,16.76,1.26,32.69,1.26,54.55v56.54Z" transform="translate(-91.78)"/><path class="cls-1" d="M717.88,1491.33c-6.17,3.11-18.83,6.3-35,6.3-37.24,0-65.18-23.56-65.18-67,0-41.5,28-69.37,69-69.37,16.34,0,26.88,3.46,31.38,5.82l-4.21,13.9c-6.42-3.06-15.6-5.45-26.59-5.45-31.06,0-51.58,19.84-51.58,54.56,0,32.35,18.64,53,50.67,53,10.5,0,21.08-2.11,28-5.42Z" transform="translate(-91.78)"/><path class="cls-1" d="M750.72,1363.35v55.38h63.92v-55.38H831.8v132.22H814.64v-62H750.72v62H733.55V1363.35Z" transform="translate(-91.78)"/><path class="cls-1" d="M877.23,1454l-13.66,41.55h-17.7l45-132.22h20.53l45.16,132.22H938.27L924.11,1454Zm43.43-13.35-13.09-38.06c-2.87-8.65-4.86-16.53-6.82-24.12h-.46c-1.89,7.73-4,15.81-6.55,23.89l-13,38.29Z" transform="translate(-91.78)"/><path class="cls-1" d="M1059.64,1491.33c-6.17,3.11-18.84,6.3-35,6.3-37.25,0-65.18-23.56-65.18-67,0-41.5,28-69.37,69-69.37,16.34,0,26.88,3.46,31.38,5.82l-4.21,13.9c-6.42-3.06-15.61-5.45-26.6-5.45-31,0-51.57,19.84-51.57,54.56,0,32.35,18.64,53,50.67,53,10.5,0,21.07-2.11,28-5.42Z" transform="translate(-91.78)"/><path class="cls-1" d="M1075.31,1363.35h17.06v63.73h.62c3.47-5.12,7.13-9.74,10.44-14l40.39-49.68H1165l-47.81,56.2,51.61,76H1148.5l-43.44-64.85-12.69,14.5v50.35h-17.06Z" transform="translate(-91.78)"/><polygon class="cls-2" points="295.86 619.11 345.95 561.71 438.13 646.93 294.57 819.06 295.86 619.11 295.86 619.11 295.86 619.11"/><polygon class="cls-2" points="784.84 524.93 784.84 1248.12 623.88 1248.12 623.88 524.93 784.84 524.93 784.84 524.93"/><polygon class="cls-2" points="623.8 524.95 1116.6 3.79 1105.93 237.78 737.09 642.52 623.8 524.95 623.8 524.95 623.8 524.95"/><polygon class="cls-2" points="551.36 3.83 1117.12 3.83 1117.12 172.45 551.36 172.45 551.36 3.83 551.36 3.83"/><path class="cls-2" d="M1211.57,310.55,1208.13,397c-76,83.32-161.85,176.49-237.84,259.81L930,616.15c96.87-105.56,184.67-200,281.54-305.6Z" transform="translate(-91.78)"/><path class="cls-2" d="M994.51,802l-63.68,75.9c-.91-50.41.2-211.89-.7-262.3h64.38V802Z" transform="translate(-91.78)"/><polygon class="cls-2" points="173.06 551.91 173.06 1245.12 15.69 1245.12 15.69 551.91 173.06 551.91 173.06 551.91"/><polygon class="cls-2" points="506.76 561.71 506.76 878.25 345.81 878.25 345.81 561.71 506.76 561.71 506.76 561.71"/><polygon class="cls-2" points="674.3 1127.97 1119.93 656.69 1120.45 878.85 787.59 1245.54 674.3 1127.97 674.3 1127.97 674.3 1127.97"/><path class="cls-2" d="M106.93,552.92,277.5,380.66c202.07.75,168.55-5.27,204.42.55L220.22,670.49,106.93,552.92Z" transform="translate(-91.78)"/><polygon class="cls-2" points="49.03 1115.73 494.66 644.45 506.76 878.63 174.67 1246.11 49.03 1115.73 49.03 1115.73 49.03 1115.73"/><polygon class="cls-2" points="650.41 108.69 493.8 271.61 557.82 273.11 309.12 350.14 214.62 270.48 294.77 275.37 551.43 4.26 650.41 108.69 650.41 108.69 650.41 108.69"/><path class="cls-2" d="M1210.83,483.3l-3.45,86.45c-76,83.31-161.84,176.48-237.83,259.8L929.28,788.9c96.87-105.56,184.68-200,281.55-305.6Z" transform="translate(-91.78)"/><polygon class="cls-2" points="10.37 87.21 16.35 8.07 88.14 4.21 10.37 87.21 10.37 87.21 10.37 87.21"/><path class="cls-2" d="M448,7.36l76.57.55c-155,169.19-266,289.31-421,458.5l.27-84.62C301,167.1,250.7,222.05,448,7.36Z" transform="translate(-91.78)"/><path class="cls-2" d="M1030.44,1243.3l-79.21.92c144.13-152.62,118.34-125.68,262.46-278.3l-2,85.28c-183.44,193.63,2.19-1.52-181.26,192.1Z" transform="translate(-91.78)"/><path class="cls-2" d="M287.69,0l68.67,2.2c-155,169.2-100,112.23-255,281.43l2.85-87.77C301.5-18.83,90.43,214.69,287.69,0Z" transform="translate(-91.78)"/><rect class="cls-1" x="1180.96" y="167.83" width="27.57" height="60.49" transform="translate(-89.29 -14.47) rotate(0.69)"/><rect class="cls-1" x="1147.74" y="244.44" width="66.83" height="9.03" transform="translate(78.13 908.12) rotate(-45)"/></g></g></svg>